<svg xmlns="http://www.w3.org/2000/svg" width="106" height="72" viewBox="0 0 106 72">
  <g fill="none" fill-rule="evenodd">
    <path fill="#4285F4" d="M26.116 34.42H13.76v3.643h8.763c-.433 5.11-4.71 7.29-8.747 7.29-5.165 0-9.673-4.04-9.673-9.702 0-5.51 4.297-9.76 9.684-9.76 4.157 0 6.606 2.635 6.606 2.635l2.567-2.64s-3.295-3.647-9.304-3.647c-7.652 0-13.57 6.42-13.57 13.354 0 6.794 5.567 13.42 13.765 13.42 7.21 0 12.49-4.91 12.49-12.17 0-1.533-.22-2.42-.22-2.42z"/>
    <path fill="#EA4335" d="M36.236 31.78c-5.07 0-8.702 3.94-8.702 8.534 0 4.663 3.524 8.676 8.762 8.676 4.742 0 8.627-3.603 8.627-8.575 0-5.7-4.52-8.635-8.687-8.635zm.05 3.38c2.494 0 4.856 2.003 4.856 5.232 0 3.16-2.352 5.22-4.867 5.22-2.763 0-4.942-2.2-4.942-5.245 0-2.98 2.153-5.207 4.954-5.207z"/>
    <path fill="#FBBC05" d="M55.163 31.78c-5.07 0-8.702 3.94-8.702 8.534 0 4.663 3.53 8.676 8.768 8.676 4.742 0 8.627-3.603 8.627-8.575 0-5.7-4.52-8.635-8.686-8.635zm.05 3.38c2.494 0 4.856 2.003 4.856 5.232 0 3.16-2.358 5.22-4.87 5.22-2.766 0-4.94-2.2-4.94-5.245 0-2.98 2.15-5.207 4.95-5.207z"/>
    <path fill="#4285F4" d="M73.728 31.79c-4.653 0-8.31 4.05-8.31 8.597 0 5.18 4.24 8.615 8.23 8.615 2.467 0 3.78-.974 4.747-2.09v1.695c0 2.97-1.813 4.747-4.55 4.747-2.645 0-3.97-1.954-4.432-3.063l-3.327 1.388c1.18 2.48 3.556 5.068 7.786 5.068 4.627 0 8.153-2.895 8.153-8.97v-15.47h-3.63v1.46c-1.116-1.197-2.642-1.976-4.667-1.976zm.337 3.372c2.28 0 4.623 1.937 4.623 5.243 0 3.362-2.337 5.214-4.674 5.214-2.48 0-4.79-2.008-4.79-5.188 0-3.304 2.398-5.275 4.84-5.275z"/>
    <path fill="#EA4335" d="M98.163 31.768c-4.39 0-8.075 3.472-8.075 8.594 0 5.42 4.108 8.635 8.496 8.635 3.663 0 5.91-1.992 7.252-3.777l-2.992-1.98c-.777 1.2-2.075 2.37-4.242 2.37-2.433 0-3.552-1.325-4.245-2.608l11.607-4.788-.602-1.403c-1.122-2.742-3.737-5.04-7.2-5.04zm.15 3.31c1.582 0 2.72.836 3.204 1.838l-7.752 3.22c-.334-2.493 2.043-5.058 4.55-5.058z"/>
    <path fill="#34A853" d="M84.554 48.486h3.813V23.122h-3.813v25.364"/>
  </g>
</svg>
